PathFileType	4	(X/Y/Z)	C:\Users\italobelli\Desktop\GitHub\PTbot_officialCBL\Personal_Results\ABD03_noisy1.trc
DataRate	CameraRate	NumFrames	NumMarkers	Units	OrigDataRate	OrigDataStartFrame	OrigNumFrames
106.533333	106.533333	51	9	m	106.533333	1	800
Frame#	Time		gu		centelbow		EpL		centpxt8		centijc7		ij		ts		aa		ai
			X1	Y1	Z1	X2	Y2	Z2	X3	Y3	Z3	X4	Y4	Z4	X5	Y5	Z5	X6	Y6	Z6	X7	Y7	Z7	X8	Y8	Z8	X9	Y9	Z9

1	0	-0.1013	-0.003018	0.16378	-0.12491	-0.24691	0.18855	-0.1288	-0.23894	0.21954	-0.046816	-0.15316	-0.008669	-0.046816	0.031938	-0.008669	0	0	0	-0.13066	0.028246	0.036677	-0.13125	0.033387	0.15583	-0.14537	-0.083868	0.046657
2	0.0093867	-0.10138	-0.003149	0.16369	-0.12489	-0.24763	0.18794	-0.12888	-0.23967	0.219	-0.046816	-0.15316	-0.008669	-0.046816	0.031938	-0.008669	0	0	0	-0.13066	0.028337	0.036628	-0.13135	0.033297	0.15582	-0.14538	-0.083826	0.04642
3	0.018773	-0.10145	-0.0032755	0.1636	-0.12488	-0.24833	0.18735	-0.12896	-0.24037	0.21849	-0.046816	-0.15316	-0.008669	-0.046816	0.031938	-0.008669	0	0	0	-0.13065	0.028426	0.036576	-0.13145	0.033209	0.15581	-0.14538	-0.083787	0.046184
4	0.02816	-0.10153	-0.0033971	0.16351	-0.12488	-0.24901	0.1868	-0.12905	-0.24105	0.218	-0.046816	-0.15316	-0.008669	-0.046816	0.031938	-0.008669	0	0	0	-0.13065	0.028513	0.036521	-0.13155	0.033124	0.15579	-0.14538	-0.083749	0.045951
5	0.037547	-0.10161	-0.0035139	0.16341	-0.12487	-0.24967	0.18628	-0.12915	-0.24171	0.21754	-0.046816	-0.15316	-0.008669	-0.046816	0.031938	-0.008669	0	0	0	-0.13064	0.028597	0.036464	-0.13165	0.033041	0.15577	-0.14537	-0.083714	0.04572
6	0.046934	-0.10168	-0.0036256	0.16332	-0.12487	-0.2503	0.18578	-0.12926	-0.24234	0.2171	-0.046816	-0.15316	-0.008669	-0.046816	0.031938	-0.008669	0	0	0	-0.13063	0.028678	0.036404	-0.13174	0.032962	0.15575	-0.14536	-0.08368	0.045492
7	0.05632	-0.10176	-0.0037322	0.16321	-0.12488	-0.25091	0.18532	-0.12937	-0.24295	0.2167	-0.046816	-0.15316	-0.008669	-0.046816	0.031938	-0.008669	0	0	0	-0.13061	0.028757	0.036341	-0.13184	0.032885	0.15572	-0.14534	-0.083649	0.045267
8	0.065707	-0.10184	-0.0038335	0.16311	-0.12489	-0.25149	0.18489	-0.12949	-0.24353	0.21631	-0.046816	-0.15316	-0.008669	-0.046816	0.031938	-0.008669	0	0	0	-0.1306	0.028833	0.036277	-0.13194	0.032811	0.15568	-0.14532	-0.08362	0.045045
9	0.075094	-0.10192	-0.0039294	0.16301	-0.12491	-0.25205	0.1845	-0.12961	-0.24408	0.21596	-0.046816	-0.15316	-0.008669	-0.046816	0.031938	-0.008669	0	0	0	-0.13058	0.028906	0.03621	-0.13204	0.03274	0.15564	-0.1453	-0.083593	0.044827
10	0.084481	-0.10199	-0.0040197	0.1629	-0.12492	-0.25258	0.18413	-0.12975	-0.24461	0.21564	-0.046816	-0.15316	-0.008669	-0.046816	0.031938	-0.008669	0	0	0	-0.13056	0.028976	0.03614	-0.13214	0.032672	0.1556	-0.14527	-0.083568	0.044613
11	0.093867	-0.10207	-0.0041044	0.16279	-0.12495	-0.25309	0.1838	-0.12988	-0.2451	0.21534	-0.046816	-0.15316	-0.008669	-0.046816	0.031938	-0.008669	0	0	0	-0.13054	0.029044	0.036069	-0.13224	0.032607	0.15556	-0.14523	-0.083545	0.044402
12	0.10325	-0.10215	-0.0041833	0.16268	-0.12497	-0.25357	0.1835	-0.13003	-0.24557	0.21507	-0.046816	-0.15316	-0.008669	-0.046816	0.031938	-0.008669	0	0	0	-0.13052	0.029107	0.035995	-0.13234	0.032546	0.1555	-0.1452	-0.083525	0.044195
13	0.11264	-0.10223	-0.0042562	0.16257	-0.12501	-0.25402	0.18323	-0.13018	-0.246	0.21482	-0.046816	-0.15316	-0.008669	-0.046816	0.031938	-0.008669	0	0	0	-0.13049	0.029168	0.035919	-0.13244	0.032488	0.15545	-0.14516	-0.083506	0.043993
14	0.12203	-0.1023	-0.0043231	0.16245	-0.12504	-0.25444	0.183	-0.13034	-0.24641	0.21461	-0.046816	-0.15316	-0.008669	-0.046816	0.031938	-0.008669	0	0	0	-0.13047	0.029225	0.035841	-0.13254	0.032433	0.15539	-0.14511	-0.08349	0.043796
15	0.13141	-0.10238	-0.0043838	0.16233	-0.12508	-0.25483	0.1828	-0.1305	-0.24678	0.21443	-0.046816	-0.15316	-0.008669	-0.046816	0.031938	-0.008669	0	0	0	-0.13044	0.029279	0.035761	-0.13264	0.032383	0.15533	-0.14506	-0.083476	0.043603
16	0.1408	-0.10245	-0.0044382	0.16221	-0.12512	-0.25519	0.18263	-0.13067	-0.24712	0.21427	-0.046816	-0.15316	-0.008669	-0.046816	0.031938	-0.008669	0	0	0	-0.13041	0.029329	0.035679	-0.13273	0.032336	0.15527	-0.14501	-0.083464	0.043416
17	0.15019	-0.10253	-0.0044861	0.16209	-0.12517	-0.25553	0.1825	-0.13084	-0.24743	0.21414	-0.046816	-0.15316	-0.008669	-0.046816	0.031938	-0.008669	0	0	0	-0.13038	0.029375	0.035596	-0.13283	0.032292	0.1552	-0.14495	-0.083455	0.043234
18	0.15957	-0.1026	-0.0045274	0.16197	-0.12522	-0.25582	0.1824	-0.13102	-0.2477	0.21404	-0.046816	-0.15316	-0.008669	-0.046816	0.031938	-0.008669	0	0	0	-0.13034	0.029417	0.03551	-0.13293	0.032253	0.15512	-0.14489	-0.083448	0.043058
19	0.16896	-0.10268	-0.0045621	0.16184	-0.12528	-0.25609	0.18234	-0.1312	-0.24793	0.21398	-0.046816	-0.15316	-0.008669	-0.046816	0.031938	-0.008669	0	0	0	-0.13031	0.029456	0.035422	-0.13302	0.032218	0.15505	-0.14483	-0.083443	0.042887
20	0.17835	-0.10275	-0.0045899	0.16171	-0.12534	-0.25632	0.18231	-0.13139	-0.24813	0.21394	-0.046816	-0.15316	-0.008669	-0.046816	0.031938	-0.008669	0	0	0	-0.13027	0.02949	0.035333	-0.13312	0.032186	0.15497	-0.14476	-0.08344	0.042723
21	0.18773	-0.10282	-0.0046107	0.16159	-0.1254	-0.25652	0.18231	-0.13159	-0.24829	0.21393	-0.046816	-0.15316	-0.008669	-0.046816	0.031938	-0.008669	0	0	0	-0.13023	0.029521	0.035242	-0.13321	0.032159	0.15488	-0.14469	-0.083439	0.042565
22	0.19712	-0.10289	-0.0046244	0.16145	-0.12547	-0.25669	0.18236	-0.13179	-0.24842	0.21395	-0.046816	-0.15316	-0.008669	-0.046816	0.031938	-0.008669	0	0	0	-0.13019	0.029547	0.03515	-0.13331	0.032137	0.1548	-0.14461	-0.083441	0.042414
23	0.20651	-0.10296	-0.0046309	0.16132	-0.12554	-0.25682	0.18244	-0.13199	-0.2485	0.21401	-0.046816	-0.15316	-0.008669	-0.046816	0.031938	-0.008669	0	0	0	-0.13015	0.029569	0.035056	-0.1334	0.032118	0.15471	-0.14454	-0.083445	0.042269
24	0.21589	-0.10303	-0.0046301	0.16119	-0.12561	-0.25691	0.18255	-0.1322	-0.24855	0.21409	-0.046816	-0.15316	-0.008669	-0.046816	0.031938	-0.008669	0	0	0	-0.13011	0.029586	0.03496	-0.13349	0.032104	0.15461	-0.14445	-0.083452	0.042132
25	0.22528	-0.10309	-0.0046217	0.16105	-0.12569	-0.25697	0.1827	-0.13242	-0.24855	0.2142	-0.046816	-0.15316	-0.008669	-0.046816	0.031938	-0.008669	0	0	0	-0.13006	0.029599	0.034863	-0.13358	0.032095	0.15451	-0.14437	-0.083461	0.042002
26	0.23467	-0.10316	-0.0046058	0.16091	-0.12577	-0.25699	0.18289	-0.13263	-0.24851	0.21435	-0.046816	-0.15316	-0.008669	-0.046816	0.031938	-0.008669	0	0	0	-0.13001	0.029607	0.034765	-0.13367	0.032091	0.15441	-0.14428	-0.083472	0.041879
27	0.24406	-0.10322	-0.0045821	0.16078	-0.12586	-0.25697	0.18311	-0.13286	-0.24843	0.21453	-0.046816	-0.15316	-0.008669	-0.046816	0.031938	-0.008669	0	0	0	-0.12997	0.02961	0.034665	-0.13376	0.032091	0.15431	-0.14419	-0.083485	0.041765
28	0.25344	-0.10329	-0.0045505	0.16064	-0.12595	-0.25691	0.18337	-0.13308	-0.24831	0.21474	-0.046816	-0.15316	-0.008669	-0.046816	0.031938	-0.008669	0	0	0	-0.12992	0.029609	0.034564	-0.13385	0.032096	0.15421	-0.14409	-0.083501	0.041658
29	0.26283	-0.10335	-0.0045109	0.16049	-0.12604	-0.25681	0.18367	-0.13332	-0.24815	0.21498	-0.046816	-0.15316	-0.008669	-0.046816	0.031938	-0.008669	0	0	0	-0.12987	0.029602	0.034461	-0.13393	0.032106	0.1541	-0.144	-0.08352	0.04156
30	0.27222	-0.10341	-0.0044632	0.16035	-0.12613	-0.25667	0.18401	-0.13355	-0.24794	0.21525	-0.046816	-0.15316	-0.008669	-0.046816	0.031938	-0.008669	0	0	0	-0.12982	0.029591	0.034358	-0.13402	0.032121	0.15398	-0.14389	-0.083541	0.04147
31	0.2816	-0.10346	-0.0044072	0.16021	-0.12623	-0.25649	0.18438	-0.13379	-0.24768	0.21556	-0.046816	-0.15316	-0.008669	-0.046816	0.031938	-0.008669	0	0	0	-0.12976	0.029574	0.034253	-0.1341	0.032142	0.15387	-0.14379	-0.083564	0.041389
32	0.29099	-0.10352	-0.0043428	0.16006	-0.12634	-0.25627	0.1848	-0.13404	-0.24738	0.2159	-0.046816	-0.15316	-0.008669	-0.046816	0.031938	-0.008669	0	0	0	-0.12971	0.029552	0.034148	-0.13418	0.032167	0.15375	-0.14368	-0.08359	0.041317
33	0.30038	-0.10357	-0.0042699	0.15991	-0.12644	-0.25601	0.18525	-0.13428	-0.24703	0.21627	-0.046816	-0.15316	-0.008669	-0.046816	0.031938	-0.008669	0	0	0	-0.12966	0.029525	0.034041	-0.13426	0.032198	0.15363	-0.14357	-0.083618	0.041255
34	0.30976	-0.10363	-0.0041883	0.15976	-0.12655	-0.2557	0.18574	-0.13453	-0.24663	0.21667	-0.046816	-0.15316	-0.008669	-0.046816	0.031938	-0.008669	0	0	0	-0.1296	0.029492	0.033933	-0.13434	0.032235	0.1535	-0.14346	-0.083648	0.041202
35	0.31915	-0.10368	-0.0040979	0.15961	-0.12667	-0.25535	0.18627	-0.13479	-0.24618	0.21711	-0.046816	-0.15316	-0.008669	-0.046816	0.031938	-0.008669	0	0	0	-0.12954	0.029454	0.033824	-0.13442	0.032277	0.15338	-0.14335	-0.083681	0.041158
36	0.32854	-0.10373	-0.0039986	0.15946	-0.12679	-0.25496	0.18684	-0.13505	-0.24569	0.21758	-0.046816	-0.15316	-0.008669	-0.046816	0.031938	-0.008669	0	0	0	-0.12948	0.02941	0.033715	-0.13449	0.032324	0.15325	-0.14323	-0.083717	0.041125
37	0.33792	-0.10377	-0.0038903	0.15931	-0.12691	-0.25452	0.18745	-0.13531	-0.24514	0.21809	-0.046816	-0.15316	-0.008669	-0.046816	0.031938	-0.008669	0	0	0	-0.12943	0.02936	0.033605	-0.13456	0.032378	0.15312	-0.14311	-0.083755	0.041102
38	0.34731	-0.10381	-0.0037728	0.15916	-0.12703	-0.25403	0.1881	-0.13557	-0.24454	0.21863	-0.046816	-0.15316	-0.008669	-0.046816	0.031938	-0.008669	0	0	0	-0.12937	0.029304	0.033494	-0.13463	0.032437	0.15298	-0.14298	-0.083796	0.041089
39	0.3567	-0.10386	-0.003646	0.15901	-0.12716	-0.2535	0.18879	-0.13584	-0.24389	0.2192	-0.046816	-0.15316	-0.008669	-0.046816	0.031938	-0.008669	0	0	0	-0.1293	0.029242	0.033382	-0.1347	0.032503	0.15285	-0.14286	-0.083839	0.041087
40	0.36608	-0.10389	-0.0035098	0.15885	-0.12729	-0.25292	0.18952	-0.13611	-0.24319	0.21981	-0.046816	-0.15316	-0.008669	-0.046816	0.031938	-0.008669	0	0	0	-0.12924	0.029175	0.03327	-0.13477	0.032574	0.15271	-0.14273	-0.083885	0.041096
41	0.37547	-0.10393	-0.003364	0.15869	-0.12742	-0.25229	0.19029	-0.13638	-0.24243	0.22046	-0.046816	-0.15316	-0.008669	-0.046816	0.031938	-0.008669	0	0	0	-0.12918	0.029101	0.033157	-0.13484	0.032651	0.15257	-0.1426	-0.083933	0.041117
42	0.38486	-0.10396	-0.0032085	0.15854	-0.12756	-0.25161	0.1911	-0.13666	-0.24162	0.22114	-0.046816	-0.15316	-0.008669	-0.046816	0.031938	-0.008669	0	0	0	-0.12912	0.02902	0.033044	-0.1349	0.032735	0.15242	-0.14247	-0.083984	0.041149
43	0.39424	-0.104	-0.0030432	0.15838	-0.1277	-0.25088	0.19196	-0.13694	-0.24075	0.22185	-0.046816	-0.15316	-0.008669	-0.046816	0.031938	-0.008669	0	0	0	-0.12905	0.028934	0.03293	-0.13496	0.032825	0.15228	-0.14233	-0.084037	0.041192
44	0.40363	-0.10402	-0.0028679	0.15822	-0.12784	-0.25011	0.19285	-0.13722	-0.23983	0.2226	-0.046816	-0.15316	-0.008669	-0.046816	0.031938	-0.008669	0	0	0	-0.12899	0.02884	0.032816	-0.13502	0.032922	0.15213	-0.14219	-0.084093	0.041247
45	0.41302	-0.10405	-0.0026825	0.15806	-0.12799	-0.24928	0.19379	-0.1375	-0.23885	0.22339	-0.046816	-0.15316	-0.008669	-0.046816	0.031938	-0.008669	0	0	0	-0.12892	0.02874	0.032701	-0.13507	0.033025	0.15198	-0.14205	-0.084152	0.041315
46	0.4224	-0.10407	-0.0024869	0.1579	-0.12813	-0.2484	0.19477	-0.13778	-0.23781	0.22421	-0.046816	-0.15316	-0.008669	-0.046816	0.031938	-0.008669	0	0	0	-0.12885	0.028634	0.032586	-0.13513	0.033135	0.15182	-0.14191	-0.084214	0.041395
47	0.43179	-0.10409	-0.002281	0.15774	-0.12829	-0.24746	0.1958	-0.13807	-0.23671	0.22507	-0.046816	-0.15316	-0.008669	-0.046816	0.031938	-0.008669	0	0	0	-0.12879	0.02852	0.032471	-0.13518	0.033251	0.15167	-0.14177	-0.084278	0.041488
48	0.44118	-0.10411	-0.0020646	0.15758	-0.12844	-0.24648	0.19686	-0.13836	-0.23555	0.22596	-0.046816	-0.15316	-0.008669	-0.046816	0.031938	-0.008669	0	0	0	-0.12872	0.0284	0.032356	-0.13523	0.033374	0.15151	-0.14162	-0.084344	0.041594
49	0.45056	-0.10412	-0.0018376	0.15742	-0.1286	-0.24544	0.19797	-0.13865	-0.23434	0.22689	-0.046816	-0.15316	-0.008669	-0.046816	0.031938	-0.008669	0	0	0	-0.12865	0.028273	0.032241	-0.13527	0.033505	0.15135	-0.14148	-0.084414	0.041712
50	0.45995	-0.10413	-0.0015999	0.15726	-0.12876	-0.24434	0.19913	-0.13894	-0.23306	0.22786	-0.046816	-0.15316	-0.008669	-0.046816	0.031938	-0.008669	0	0	0	-0.12858	0.028138	0.032125	-0.13532	0.033642	0.15119	-0.14133	-0.084486	0.041845
51	0.46934	-0.10414	-0.0013513	0.15709	-0.12892	-0.24319	0.20032	-0.13924	-0.23172	0.22886	-0.046816	-0.15316	-0.008669	-0.046816	0.031938	-0.008669	0	0	0	-0.12851	0.027997	0.03201	-0.13536	0.033786	0.15103	-0.14118	-0.084561	0.04199
